<svg width="33" height="33" viewBox="0 0 33 33" fill="none" xmlns="http://www.w3.org/2000/svg">
<path d="M16.5 33C25.6127 33 33 25.6127 33 16.5C33 7.3873 25.6127 0 16.5 0C7.3873 0 0 7.3873 0 16.5C0 25.6127 7.3873 33 16.5 33Z" fill="#DD1C4B"/>
<path d="M32.8077 13.9751C32.8208 14.2465 32.8282 14.519 32.8282 14.7933C32.8355 23.906 25.4542 31.2992 16.3415 31.3066C8.1936 31.3131 1.26082 25.3713 0.0204773 17.3183C0.482193 26.4193 8.23435 33.4228 17.3353 32.9611C26.4363 32.4994 33.4398 24.7472 32.9781 15.6463C32.9497 15.0866 32.8928 14.5289 32.8077 13.9751Z" fill="#B21D48"/>
<path d="M22.1663 16.4915L31.9963 10.8206C31.3423 9.04008 30.3857 7.38581 29.1686 5.9309L19.3448 11.5984V0.249207C17.4628 -0.083069 15.5372 -0.083069 13.6552 0.249207V11.5676L3.85815 5.90017C2.62833 7.36277 1.6623 9.02813 1.00308 10.8217L10.8337 16.5114L1.00365 22.1794C1.65768 23.9599 2.61432 25.6142 3.83141 27.0691L13.6552 21.4016V32.7508C15.5372 33.0831 17.4628 33.0831 19.3448 32.7508V21.4324L29.1418 27.0998C30.3717 25.6372 31.3377 23.9719 31.9969 22.1783L22.1663 16.4915Z" fill="#F6F6E7"/>
<path d="M9.67239 29.5864C10.3008 29.5864 10.8103 29.0769 10.8103 28.4485C10.8103 27.82 10.3008 27.3105 9.67239 27.3105C9.04392 27.3105 8.53445 27.82 8.53445 28.4485C8.53445 29.0769 9.04392 29.5864 9.67239 29.5864Z" fill="#F6F6E7"/>
<path d="M23.3276 29.5864C23.9561 29.5864 24.4655 29.0769 24.4655 28.4485C24.4655 27.82 23.9561 27.3105 23.3276 27.3105C22.6991 27.3105 22.1897 27.82 22.1897 28.4485C22.1897 29.0769 22.6991 29.5864 23.3276 29.5864Z" fill="#F6F6E7"/>
<path d="M30.1552 17.6377C30.7836 17.6377 31.2931 17.1282 31.2931 16.4997C31.2931 15.8713 30.7836 15.3618 30.1552 15.3618C29.5267 15.3618 29.0172 15.8713 29.0172 16.4997C29.0172 17.1282 29.5267 17.6377 30.1552 17.6377Z" fill="#F6F6E7"/>
<path d="M23.3276 5.68944C23.9561 5.68944 24.4655 5.17997 24.4655 4.55151C24.4655 3.92304 23.9561 3.41357 23.3276 3.41357C22.6991 3.41357 22.1897 3.92304 22.1897 4.55151C22.1897 5.17997 22.6991 5.68944 23.3276 5.68944Z" fill="#F6F6E7"/>
<path d="M9.67239 5.68944C10.3008 5.68944 10.8103 5.17997 10.8103 4.55151C10.8103 3.92304 10.3008 3.41357 9.67239 3.41357C9.04392 3.41357 8.53445 3.92304 8.53445 4.55151C8.53445 5.17997 9.04392 5.68944 9.67239 5.68944Z" fill="#F6F6E7"/>
<path d="M2.84481 17.6377C3.47327 17.6377 3.98274 17.1282 3.98274 16.4997C3.98274 15.8713 3.47327 15.3618 2.84481 15.3618C2.21635 15.3618 1.70688 15.8713 1.70688 16.4997C1.70688 17.1282 2.21635 17.6377 2.84481 17.6377Z" fill="#F6F6E7"/>
<path d="M24.1441 8.85575C19.9223 4.63402 13.0776 4.63402 8.85596 8.85575C4.63431 13.0775 4.63424 19.9222 8.85596 24.1439C13.0777 28.3655 19.9224 28.3656 24.1441 24.1439C28.3657 19.9221 28.3657 13.0775 24.1441 8.85575ZM20.4828 23.3979C16.673 25.5977 11.8014 24.2925 9.60159 20.4827C7.40183 16.6729 8.70704 11.8013 12.5168 9.60152C16.3266 7.40175 21.1982 8.70696 23.398 12.5168C23.3981 12.5168 23.3982 12.517 23.3982 12.517C25.5976 16.3268 24.2924 21.1982 20.4828 23.3979Z" fill="#DD1C4B"/>
<path d="M22.9373 10.0627C19.3821 6.50763 13.618 6.50777 10.0631 10.063C6.5081 13.6183 6.50817 19.3823 10.0634 22.9372C13.6185 26.4921 19.3822 26.4921 22.9373 22.9372C26.4925 19.3822 26.4922 13.6178 22.9373 10.0627Z" fill="#F6F6E7"/>
<path d="M13.518 17.258V15.366H19.26V17.258H13.518Z" fill="#DD1C4B"/>
</svg>
