<svg width="33" height="33" viewBox="0 0 33 33" fill="none" xmlns="http://www.w3.org/2000/svg">
<path d="M16.5 33C25.6127 33 33 25.6127 33 16.5C33 7.3873 25.6127 0 16.5 0C7.3873 0 0 7.3873 0 16.5C0 25.6127 7.3873 33 16.5 33Z" fill="#1CDD21"/>
<path d="M32.8077 13.9749C32.8208 14.2463 32.8282 14.5188 32.8282 14.793C32.8355 23.9057 25.4542 31.2989 16.3415 31.3063C8.1936 31.3129 1.26082 25.371 0.0204773 17.3181C0.482193 26.4191 8.23435 33.4226 17.3353 32.9609C26.4363 32.4992 33.4398 24.747 32.9781 15.646C32.9497 15.0864 32.8928 14.5287 32.8077 13.9749Z" fill="#14A918"/>
<path d="M22.1663 16.4915L31.9963 10.8206C31.3423 9.04008 30.3857 7.38581 29.1686 5.9309L19.3448 11.5984V0.249207C17.4628 -0.083069 15.5372 -0.083069 13.6552 0.249207V11.5676L3.85815 5.90017C2.62833 7.36277 1.6623 9.02813 1.00308 10.8217L10.8337 16.5114L1.00365 22.1794C1.65768 23.9599 2.61432 25.6142 3.83141 27.0691L13.6552 21.4016V32.7508C15.5372 33.0831 17.4628 33.0831 19.3448 32.7508V21.4324L29.1418 27.0998C30.3717 25.6372 31.3377 23.9719 31.9969 22.1783L22.1663 16.4915Z" fill="#F6F6E7"/>
<path d="M9.67239 29.5862C10.3008 29.5862 10.8103 29.0767 10.8103 28.4482C10.8103 27.8198 10.3008 27.3103 9.67239 27.3103C9.04392 27.3103 8.53445 27.8198 8.53445 28.4482C8.53445 29.0767 9.04392 29.5862 9.67239 29.5862Z" fill="#F6F6E7"/>
<path d="M23.3276 29.5862C23.9561 29.5862 24.4655 29.0767 24.4655 28.4482C24.4655 27.8198 23.9561 27.3103 23.3276 27.3103C22.6991 27.3103 22.1897 27.8198 22.1897 28.4482C22.1897 29.0767 22.6991 29.5862 23.3276 29.5862Z" fill="#F6F6E7"/>
<path d="M30.1552 17.6379C30.7836 17.6379 31.2931 17.1284 31.2931 16.5C31.2931 15.8715 30.7836 15.3621 30.1552 15.3621C29.5267 15.3621 29.0172 15.8715 29.0172 16.5C29.0172 17.1284 29.5267 17.6379 30.1552 17.6379Z" fill="#F6F6E7"/>
<path d="M23.3276 5.68968C23.9561 5.68968 24.4655 5.18021 24.4655 4.55175C24.4655 3.92329 23.9561 3.41382 23.3276 3.41382C22.6991 3.41382 22.1897 3.92329 22.1897 4.55175C22.1897 5.18021 22.6991 5.68968 23.3276 5.68968Z" fill="#F6F6E7"/>
<path d="M9.67239 5.68968C10.3008 5.68968 10.8103 5.18021 10.8103 4.55175C10.8103 3.92329 10.3008 3.41382 9.67239 3.41382C9.04392 3.41382 8.53445 3.92329 8.53445 4.55175C8.53445 5.18021 9.04392 5.68968 9.67239 5.68968Z" fill="#F6F6E7"/>
<path d="M2.84481 17.6379C3.47327 17.6379 3.98274 17.1284 3.98274 16.5C3.98274 15.8715 3.47327 15.3621 2.84481 15.3621C2.21635 15.3621 1.70688 15.8715 1.70688 16.5C1.70688 17.1284 2.21635 17.6379 2.84481 17.6379Z" fill="#F6F6E7"/>
<path d="M24.1441 8.85599C19.9223 4.63427 13.0776 4.63427 8.85596 8.85599C4.63431 13.0777 4.63424 19.9224 8.85596 24.1441C13.0777 28.3657 19.9224 28.3658 24.1441 24.1441C28.3657 19.9224 28.3657 13.0777 24.1441 8.85599ZM20.4828 23.3982C16.673 25.5979 11.8014 24.2927 9.60159 20.4829C7.40183 16.6732 8.70704 11.8015 12.5168 9.60176C16.3266 7.402 21.1982 8.70721 23.398 12.517C23.3981 12.5171 23.3982 12.5172 23.3982 12.5173C25.5976 16.327 24.2924 21.1985 20.4828 23.3982Z" fill="#1CDD21"/>
<path d="M22.9373 10.0627C19.3821 6.50763 13.618 6.50777 10.0631 10.063C6.5081 13.6183 6.50817 19.3823 10.0634 22.9372C13.6185 26.4921 19.3822 26.4921 22.9373 22.9372C26.4925 19.3822 26.4922 13.6178 22.9373 10.0627Z" fill="#F6F6E7"/>
<path d="M15.764 21.636V17.038H11.474V15.542H15.764V10.944H17.436V15.542H21.726V17.038H17.436V21.636H15.764Z" fill="#1CDD21"/>
</svg>
