<svg width="17" height="17" viewBox="0 0 17 17" fill="none" xmlns="http://www.w3.org/2000/svg">
<path d="M8.5 17C13.1944 17 17 13.1944 17 8.5C17 3.80558 13.1944 0 8.5 0C3.80558 0 0 3.80558 0 8.5C0 13.1944 3.80558 17 8.5 17Z" fill="#FFD400"/>
<path d="M16.9009 7.1992C16.9076 7.33901 16.9114 7.47941 16.9114 7.62069C16.9152 12.3151 13.1127 16.1237 8.41828 16.1275C4.22089 16.1309 0.649463 13.07 0.010498 8.92148C0.248351 13.6099 4.24189 17.2177 8.93026 16.9799C13.6186 16.742 17.2265 12.7485 16.9887 8.06012C16.974 7.77182 16.9447 7.4845 16.9009 7.1992Z" fill="#D6B100"/>
<path d="M11.4191 8.4956L16.4831 5.57424C16.1461 4.65701 15.6533 3.80481 15.0263 3.05531L9.96562 5.97491V0.128379C8.99611 -0.0427931 8.0041 -0.0427931 7.03459 0.128379V5.95909L1.98764 3.03948C1.3541 3.79294 0.856443 4.65086 0.516846 5.57483L5.58109 8.50586L0.517139 11.4258C0.854061 12.343 1.34688 13.1952 1.97386 13.9447L7.03459 11.0251V16.8716C8.0041 17.0428 8.99611 17.0428 9.96562 16.8716V11.0409L15.0126 13.9605C15.6461 13.2071 16.1438 12.3491 16.4834 11.4252L11.4191 8.4956Z" fill="#F6F6E7"/>
<path d="M4.98294 15.2414C5.30669 15.2414 5.56914 14.9789 5.56914 14.6552C5.56914 14.3314 5.30669 14.069 4.98294 14.069C4.65918 14.069 4.39673 14.3314 4.39673 14.6552C4.39673 14.9789 4.65918 15.2414 4.98294 15.2414Z" fill="#F6F6E7"/>
<path d="M12.0174 15.2414C12.3411 15.2414 12.6036 14.9789 12.6036 14.6552C12.6036 14.3314 12.3411 14.069 12.0174 14.069C11.6936 14.069 11.4312 14.3314 11.4312 14.6552C11.4312 14.9789 11.6936 15.2414 12.0174 15.2414Z" fill="#F6F6E7"/>
<path d="M15.5347 9.08621C15.8584 9.08621 16.1209 8.82376 16.1209 8.50001C16.1209 8.17626 15.8584 7.9138 15.5347 7.9138C15.2109 7.9138 14.9485 8.17626 14.9485 8.50001C14.9485 8.82376 15.2109 9.08621 15.5347 9.08621Z" fill="#F6F6E7"/>
<path d="M12.0174 2.93104C12.3411 2.93104 12.6036 2.66858 12.6036 2.34483C12.6036 2.02108 12.3411 1.75862 12.0174 1.75862C11.6936 1.75862 11.4312 2.02108 11.4312 2.34483C11.4312 2.66858 11.6936 2.93104 12.0174 2.93104Z" fill="#F6F6E7"/>
<path d="M4.98294 2.93104C5.30669 2.93104 5.56914 2.66858 5.56914 2.34483C5.56914 2.02108 5.30669 1.75862 4.98294 1.75862C4.65918 1.75862 4.39673 2.02108 4.39673 2.34483C4.39673 2.66858 4.65918 2.93104 4.98294 2.93104Z" fill="#F6F6E7"/>
<path d="M1.4656 9.08621C1.78935 9.08621 2.05181 8.82376 2.05181 8.50001C2.05181 8.17626 1.78935 7.9138 1.4656 7.9138C1.14185 7.9138 0.879395 8.17626 0.879395 8.50001C0.879395 8.82376 1.14185 9.08621 1.4656 9.08621Z" fill="#F6F6E7"/>
<path d="M12.4379 4.56215C10.2631 2.38732 6.73705 2.38732 4.56226 4.56215C2.38747 6.73698 2.38743 10.2631 4.56226 12.4378C6.73709 14.6126 10.2632 14.6127 12.4379 12.4378C14.6127 10.263 14.6127 6.73698 12.4379 4.56215ZM10.5518 12.0536C8.58921 13.1868 6.07958 12.5144 4.94637 10.5518C3.81316 8.58917 4.48554 6.07955 6.44816 4.94634C8.41078 3.81313 10.9204 4.4855 12.0536 6.44813C12.0537 6.44816 12.0537 6.44824 12.0537 6.44827C13.1868 8.41086 12.5144 10.9204 10.5518 12.0536Z" fill="#FFD400"/>
<path d="M11.8162 5.18384C9.98473 3.35245 7.01537 3.35253 5.18402 5.18402C3.35267 7.01551 3.35271 9.98483 5.1842 11.8162C7.01562 13.6475 9.9848 13.6475 11.8162 11.8162C13.6477 9.9848 13.6478 7.01548 11.8164 5.18402C11.8163 5.18395 11.8163 5.18391 11.8162 5.18384ZM10.2293 11.4926C8.57673 12.4473 6.46312 11.8815 5.50841 10.229C4.5537 8.57636 5.11946 6.46276 6.77206 5.50805C8.42465 4.55333 10.5383 5.1191 11.493 6.77169C11.4933 6.77235 11.4937 6.77297 11.4941 6.77363C12.4474 8.42604 11.8813 10.5384 10.2293 11.4926Z" fill="#F6F6E7"/>
<path d="M8.49993 12.6034C10.7662 12.6034 12.6034 10.7663 12.6034 8.49999C12.6034 6.23372 10.7662 4.39655 8.49993 4.39655C6.23366 4.39655 4.39648 6.23372 4.39648 8.49999C4.39648 10.7663 6.23366 12.6034 8.49993 12.6034Z" fill="#FFD400"/>
</svg>
