<svg width="94" height="27" viewBox="0 0 94 27" fill="none" xmlns="http://www.w3.org/2000/svg">
<path d="M35.4731 10.2777C35.5398 10.5094 35.4564 10.647 35.2728 10.7088L33.4735 11.2397C33.2566 11.3062 33.1398 11.2397 33.073 11.0246C32.7949 10.1115 32.1905 9.61389 31.0902 9.61389C29.3909 9.61389 28.8245 10.6091 28.8245 11.9534V15.0407C28.8245 16.3849 29.3909 17.3801 31.0902 17.3801C32.4899 17.3801 33.2223 16.7339 33.2223 15.3222V14.9243H31.3571C31.207 14.9243 31.1068 14.8412 31.1068 14.6584V12.9495C31.1031 12.9151 31.1068 12.8803 31.1178 12.8475C31.1288 12.8146 31.1468 12.7845 31.1706 12.7593C31.1944 12.734 31.2234 12.7142 31.2556 12.7011C31.2878 12.6881 31.3224 12.6821 31.3571 12.6836H35.423C35.5899 12.6836 35.69 12.7667 35.69 12.9329V15.4884C35.69 17.9276 33.8897 19.7704 31.0902 19.7704C27.7742 19.7704 26.2252 17.8122 26.2252 15.1238V11.8703C26.2252 9.18181 27.7742 7.22363 31.0902 7.22363C33.7729 7.22363 34.9901 8.75066 35.4731 10.2777ZM44.6023 13.3308V19.3217C44.6043 19.3549 44.5992 19.3881 44.5874 19.4192C44.5756 19.4503 44.5574 19.4785 44.5338 19.5021C44.5102 19.5256 44.4819 19.5439 44.4508 19.5558C44.4196 19.5677 44.3862 19.5729 44.3529 19.571H42.5193C42.4848 19.5746 42.4499 19.5708 42.4171 19.5597C42.3842 19.5487 42.3541 19.5308 42.3289 19.5071C42.3036 19.4834 42.2838 19.4546 42.2707 19.4226C42.2577 19.3906 42.2517 19.3562 42.2532 19.3217V18.3431C41.9932 18.7799 41.622 19.1407 41.1772 19.3891C40.7323 19.6374 40.2296 19.7645 39.7197 19.7575C37.9871 19.7575 36.871 18.645 36.871 16.9361C36.871 15.2742 37.9204 14.2808 40.4864 14.098C41.0414 14.0509 41.5991 14.0453 42.155 14.0814V13.4176C42.155 12.5212 41.6915 12.1731 40.8887 12.1731C40.072 12.1731 39.8384 12.5045 39.6224 13.0197C39.5389 13.2182 39.4722 13.2514 39.2887 13.2043L37.4559 12.7427C37.2705 12.6929 37.2557 12.5932 37.2891 12.4602C37.5394 11.1492 38.789 10.1872 40.9888 10.1872C43.3026 10.178 44.6023 11.2729 44.6023 13.3308ZM42.1531 16.4698V15.6029C41.6637 15.5854 41.1737 15.6021 40.6866 15.6528C39.7531 15.7691 39.2534 16.0507 39.2534 16.7606C39.2534 17.4069 39.6863 17.7568 40.4029 17.7568C41.2196 17.7624 41.8528 17.3137 42.1531 16.468V16.4698ZM51.2202 10.178C52.3864 10.178 53.1531 10.8584 53.5025 11.8398C54.1857 10.8446 55.0191 10.178 56.1853 10.178C57.802 10.178 58.7188 11.4557 58.7188 13.3641V19.3217C58.7188 19.4713 58.5853 19.571 58.4185 19.571H56.5023C56.3355 19.571 56.202 19.4713 56.202 19.3217V13.7952C56.202 12.9643 55.8358 12.4676 55.1823 12.4676C54.4991 12.4676 53.9994 13.0326 53.7491 13.8949V19.3217C53.7516 19.3537 53.7473 19.3858 53.7367 19.416C53.726 19.4462 53.7092 19.4739 53.6872 19.4974C53.6653 19.5208 53.6387 19.5394 53.6091 19.5521C53.5796 19.5648 53.5477 19.5712 53.5155 19.571H51.4492C51.3 19.571 51.2332 19.4713 51.2332 19.3217V13.7952C51.2332 12.9643 50.8624 12.4676 50.2135 12.4676C49.5136 12.4676 49.0139 13.0659 48.7803 13.9115V19.3217C48.7838 19.3552 48.7797 19.3891 48.7684 19.4208C48.7572 19.4526 48.7389 19.4814 48.715 19.5053C48.6912 19.5291 48.6623 19.5474 48.6304 19.5588C48.5986 19.5701 48.5646 19.5743 48.531 19.571H46.5045C46.4708 19.5744 46.4367 19.5704 46.4048 19.5591C46.3728 19.5478 46.3438 19.5295 46.3198 19.5057C46.2958 19.4818 46.2775 19.4529 46.2662 19.4211C46.2548 19.3892 46.2507 19.3553 46.2542 19.3217V10.6091C46.254 10.5771 46.2604 10.5454 46.2732 10.516C46.2859 10.4866 46.3046 10.4602 46.3282 10.4384C46.3517 10.4166 46.3795 10.4 46.4099 10.3894C46.4403 10.3789 46.4725 10.3748 46.5045 10.3774H48.4512C48.4832 10.3748 48.5154 10.3789 48.5457 10.3894C48.576 10.4 48.6038 10.4167 48.6273 10.4385C48.6507 10.4603 48.6694 10.4867 48.682 10.5161C48.6946 10.5455 48.701 10.5772 48.7006 10.6091V11.6552C49.254 10.8944 50.0531 10.178 51.2202 10.178ZM69.2043 10.3774C69.2543 10.5925 69.1876 10.7587 68.9883 10.8086L67.2214 11.3228C67.0045 11.3893 66.8886 11.3062 66.8219 11.1068C66.5716 10.2758 66.1386 9.61389 64.9057 9.61389C63.3891 9.61389 62.9052 10.6091 62.9052 11.9534V15.0407C62.9052 16.3849 63.4559 17.3801 64.9057 17.3801C66.2035 17.3801 66.705 16.6499 66.9053 15.7377C66.9553 15.5383 67.0907 15.4386 67.3048 15.5217L69.0708 16.0858C69.271 16.1522 69.3378 16.3018 69.2877 16.5169C68.8715 18.3098 67.5718 19.7704 64.8723 19.7704C61.8392 19.7704 60.3059 17.8122 60.3059 15.1238V11.8703C60.3059 9.18181 61.8725 7.22363 64.8723 7.22363C67.5051 7.22363 68.738 8.61772 69.2043 10.3774ZM78.0749 13.3308V19.3217C78.0769 19.3549 78.0718 19.3881 78.06 19.4192C78.0482 19.4503 78.0299 19.4785 78.0064 19.5021C77.9828 19.5256 77.9545 19.5439 77.9233 19.5558C77.8922 19.5677 77.8588 19.5729 77.8255 19.571H75.9919C75.9574 19.5746 75.9225 19.5708 75.8897 19.5597C75.8568 19.5487 75.8267 19.5308 75.8014 19.5071C75.7762 19.4834 75.7564 19.4546 75.7433 19.4226C75.7302 19.3906 75.7243 19.3562 75.7258 19.3217V18.3431C75.4659 18.7801 75.0947 19.141 74.6499 19.3893C74.205 19.6377 73.7022 19.7647 73.1923 19.7575C71.4597 19.7575 70.3436 18.645 70.3436 16.9361C70.3436 15.2742 71.393 14.2808 73.9589 14.098C74.5139 14.0509 75.0717 14.0453 75.6276 14.0814V13.4176C75.6276 12.5212 75.164 12.1731 74.3612 12.1731C73.5446 12.1731 73.3109 12.5045 73.0949 13.0197C73.0115 13.2182 72.9448 13.2514 72.7612 13.2043L70.9285 12.7427C70.7431 12.6929 70.7283 12.5932 70.7617 12.4602C71.012 11.1492 72.2616 10.1872 74.4614 10.1872C76.7752 10.178 78.0749 11.2729 78.0749 13.3308ZM75.6257 16.4698V15.6029C75.1363 15.5854 74.6462 15.6021 74.1592 15.6528C73.2257 15.7691 72.726 16.0507 72.726 16.7606C72.726 17.4069 73.1598 17.7568 73.8755 17.7568C74.6922 17.7624 75.3253 17.3137 75.6257 16.468V16.4698ZM85.2101 10.5427V12.319C85.2101 12.5341 85.1266 12.6172 84.9097 12.6172H84.6427C83.3097 12.6172 82.5273 13.2145 82.2603 14.2107V19.3217C82.2634 19.3527 82.26 19.3841 82.2505 19.4138C82.241 19.4435 82.2254 19.4709 82.2048 19.4944C82.1843 19.518 82.1591 19.537 82.1309 19.5505C82.1026 19.564 82.0719 19.5716 82.0406 19.5728H79.9437C79.9129 19.5712 79.8827 19.5634 79.8549 19.5499C79.8272 19.5363 79.8025 19.5174 79.7823 19.4941C79.7621 19.4708 79.7469 19.4437 79.7375 19.4144C79.7281 19.3851 79.7248 19.3542 79.7277 19.3235V10.6091C79.726 10.5768 79.7314 10.5445 79.7436 10.5144C79.7557 10.4844 79.7743 10.4574 79.7981 10.4353C79.8219 10.4132 79.8502 10.3966 79.8811 10.3866C79.9121 10.3766 79.9448 10.3734 79.9771 10.3774H81.8765C82.0768 10.3774 82.1268 10.5094 82.1268 10.6424V11.8703C82.5597 11.0578 83.3764 10.2611 84.8096 10.2611C85.1433 10.2611 85.2101 10.3109 85.2101 10.5427ZM88.4843 15.7377V16.0858C88.4843 17.0487 88.9849 17.7291 90.1677 17.7291C91.3172 17.7291 91.6343 17.297 91.9337 16.7496C92.0839 16.5003 92.1506 16.4726 92.4167 16.5834L93.734 17.2472C94 17.3801 94.0167 17.5131 93.8999 17.7624C93.3335 19.0401 91.917 19.7704 90.1511 19.7704C87.485 19.7704 86.0852 18.1935 86.0852 16.0359V13.9125C86.0852 11.8213 87.4015 10.1789 90.1344 10.1789C92.73 10.1789 94 11.8213 94 13.8626V15.3259C94 15.5752 93.9166 15.7414 93.5671 15.7414L88.4843 15.7377ZM88.4843 13.7989V14.1147H91.701V13.7989C91.701 12.9034 91.2004 12.2063 90.101 12.2063C89.0016 12.2063 88.4843 12.8997 88.4843 13.7952V13.7989Z" fill="white"/>
<path d="M11.5209 0H0.33836C0.248696 0.000243652 0.162775 0.0358251 0.0993735 0.0989685C0.0359718 0.162112 0.00024469 0.247683 4.09026e-08 0.336981V16.5361C-0.000121703 17.9102 0.27153 19.2708 0.799443 20.5404C1.32736 21.8099 2.10119 22.9634 3.07676 23.9351C4.05233 24.9068 5.21052 25.6776 6.48521 26.2035C7.7599 26.7293 9.12611 27 10.5058 27H11.5255C14.3112 26.9988 16.9824 25.8958 18.9516 23.9335C20.9209 21.9712 22.027 19.3104 22.0267 16.5361V10.463C22.0267 9.089 21.755 7.72843 21.227 6.45899C20.6991 5.18956 19.9252 4.03613 18.9497 3.06455C17.9741 2.09297 16.8159 1.32227 15.5413 0.79645C14.2667 0.270634 12.9006 0 11.5209 0V0ZM18.6533 16.7105C18.6533 20.65 15.7472 23.6247 11.227 23.6247C5.8717 23.6247 3.36969 20.4626 3.36969 16.1206V10.8683C3.36969 6.52912 5.87262 3.36427 11.227 3.36427C15.559 3.36427 17.5233 5.83023 18.3039 8.29526C18.4114 8.67102 18.277 8.88521 17.9813 8.99231L15.0751 9.84999C14.7247 9.95709 14.5365 9.84999 14.4262 9.50193C13.9682 8.02476 12.9995 7.22339 11.2243 7.22339C8.47938 7.22339 7.56442 8.83166 7.56442 11.0022V15.9877C7.56442 18.1582 8.47938 19.7665 11.2243 19.7665C13.4843 19.7665 14.6681 18.7214 14.6681 16.4428V15.7965H11.6572C11.4152 15.7965 11.2539 15.6627 11.2539 15.3682V12.6077C11.2539 12.339 11.4152 12.1784 11.6572 12.1784H18.2232C18.492 12.1784 18.6533 12.3123 18.6533 12.5809V16.7105Z" fill="#2E008B"/>
</svg>
