<svg width="27" height="27" viewBox="0 0 27 27" fill="none" xmlns="http://www.w3.org/2000/svg">
<path d="M13.5 27C20.9558 27 27 20.9558 27 13.5C27 6.04416 20.9558 0 13.5 0C6.04416 0 0 6.04416 0 13.5C0 20.9558 6.04416 27 13.5 27Z" fill="#DD1C4B"/>
<path d="M26.8426 11.434C26.8534 11.6561 26.8594 11.8791 26.8594 12.1034C26.8654 19.5593 20.8261 25.6083 13.3703 25.6143C6.70385 25.6197 1.03158 20.7582 0.0167542 14.1694C0.394521 21.6156 6.73719 27.3458 14.1834 26.968C21.6297 26.5903 27.3598 20.2476 26.9821 12.8014C26.9589 12.3435 26.9123 11.8871 26.8426 11.434Z" fill="#B21D48"/>
<path d="M18.1361 13.493L26.1788 8.85321C25.6437 7.39643 24.861 6.04294 23.8652 4.85255L15.8276 9.48957V0.203897C14.2878 -0.0679655 12.7122 -0.0679655 11.1724 0.203897V9.46443L3.15667 4.82741C2.15046 6.02408 1.36007 7.38665 0.820709 8.85414L8.86392 13.5093L0.821175 18.1468C1.35629 19.6036 2.139 20.9571 3.1348 22.1474L11.1724 17.5104V26.7961C12.7122 27.068 14.2878 27.068 15.8276 26.7961V17.5356L23.8433 22.1726C24.8495 20.9759 25.6399 19.6133 26.1793 18.1459L18.1361 13.493Z" fill="#F6F6E7"/>
<path d="M7.91379 24.2069C8.42799 24.2069 8.84483 23.79 8.84483 23.2759C8.84483 22.7617 8.42799 22.3448 7.91379 22.3448C7.3996 22.3448 6.98276 22.7617 6.98276 23.2759C6.98276 23.79 7.3996 24.2069 7.91379 24.2069Z" fill="#F6F6E7"/>
<path d="M19.0862 24.2069C19.6004 24.2069 20.0173 23.79 20.0173 23.2759C20.0173 22.7617 19.6004 22.3448 19.0862 22.3448C18.572 22.3448 18.1552 22.7617 18.1552 23.2759C18.1552 23.79 18.572 24.2069 19.0862 24.2069Z" fill="#F6F6E7"/>
<path d="M24.6724 14.431C25.1866 14.431 25.6035 14.0142 25.6035 13.5C25.6035 12.9858 25.1866 12.569 24.6724 12.569C24.1582 12.569 23.7414 12.9858 23.7414 13.5C23.7414 14.0142 24.1582 14.431 24.6724 14.431Z" fill="#F6F6E7"/>
<path d="M19.0862 4.65519C19.6004 4.65519 20.0173 4.23835 20.0173 3.72416C20.0173 3.20996 19.6004 2.79312 19.0862 2.79312C18.572 2.79312 18.1552 3.20996 18.1552 3.72416C18.1552 4.23835 18.572 4.65519 19.0862 4.65519Z" fill="#F6F6E7"/>
<path d="M7.91379 4.65519C8.42799 4.65519 8.84483 4.23835 8.84483 3.72416C8.84483 3.20996 8.42799 2.79312 7.91379 2.79312C7.3996 2.79312 6.98276 3.20996 6.98276 3.72416C6.98276 4.23835 7.3996 4.65519 7.91379 4.65519Z" fill="#F6F6E7"/>
<path d="M2.32758 14.431C2.84178 14.431 3.25861 14.0142 3.25861 13.5C3.25861 12.9858 2.84178 12.569 2.32758 12.569C1.81338 12.569 1.39655 12.9858 1.39655 13.5C1.39655 14.0142 1.81338 14.431 2.32758 14.431Z" fill="#F6F6E7"/>
<path d="M19.7542 7.24579C16.3001 3.79165 10.6999 3.79165 7.24579 7.24579C3.79171 10.6999 3.79166 16.3002 7.24579 19.7542C10.6999 23.2083 16.3002 23.2084 19.7542 19.7542C23.2083 16.3001 23.2083 10.6999 19.7542 7.24579ZM16.7586 19.1439C13.6415 20.9437 9.65566 19.8759 7.85585 16.7587C6.05605 13.6416 7.12394 9.65577 10.241 7.85596C13.3582 6.05616 17.344 7.12405 19.1438 10.2412C19.1439 10.2412 19.1439 10.2413 19.1439 10.2414C20.9435 13.3584 19.8756 17.3442 16.7586 19.1439Z" fill="#DD1C4B"/>
<path d="M18.7669 8.23312C15.8581 5.32445 11.142 5.32457 8.23343 8.23341C5.32482 11.1423 5.32488 15.8582 8.23372 18.7668C11.1424 21.6754 15.8582 21.6754 18.7669 18.7668C21.6757 15.8582 21.6758 11.1422 18.7672 8.23341C18.767 8.23329 18.767 8.23323 18.7669 8.23312ZM16.2466 18.2529C13.6219 19.7692 10.2649 18.8707 8.74864 16.246C7.23234 13.6212 8.1309 10.2643 10.7556 8.74804C13.3803 7.23173 16.7372 8.1303 18.2535 10.755C18.2541 10.756 18.2547 10.757 18.2553 10.7581C19.7694 13.3825 18.8703 16.7375 16.2466 18.2529Z" fill="#F6F6E7"/>
<path d="M13.5 20.0172C17.0994 20.0172 20.0172 17.0994 20.0172 13.5C20.0172 9.90063 17.0994 6.98276 13.5 6.98276C9.90063 6.98276 6.98276 9.90063 6.98276 13.5C6.98276 17.0994 9.90063 20.0172 13.5 20.0172Z" fill="#DD1C4B"/>
</svg>
