<svg width="16" height="16" viewBox="0 0 16 16" fill="none" xmlns="http://www.w3.org/2000/svg">
<path d="M8 16C12.4183 16 16 12.4183 16 8C16 3.58172 12.4183 0 8 0C3.58172 0 0 3.58172 0 8C0 12.4183 3.58172 16 8 16Z" fill="#FFD400"/>
<path d="M15.9067 6.77573C15.9131 6.90731 15.9166 7.03945 15.9166 7.17242C15.9202 11.5907 12.3414 15.1753 7.92309 15.1789C3.97261 15.182 0.611267 12.3011 0.0098877 8.39669C0.23375 12.8093 3.99237 16.2049 8.40496 15.9811C12.8175 15.7572 16.2132 11.9986 15.9893 7.586C15.9756 7.31466 15.948 7.04424 15.9067 6.77573Z" fill="#D6B100"/>
<path d="M10.7473 7.99586L15.5134 5.24634C15.1963 4.38307 14.7324 3.581 14.1423 2.87559L9.37929 5.62345V0.120828C8.46681 -0.0402759 7.53316 -0.0402759 6.62067 0.120828V5.60855L1.8706 2.86069C1.27433 3.56983 0.805949 4.37728 0.486328 5.2469L5.25267 8.00552L0.486604 10.7537C0.803707 11.6169 1.26754 12.419 1.85764 13.1244L6.62067 10.3766V15.8792C7.53316 16.0403 8.46681 16.0403 9.37929 15.8792V10.3914L14.1294 13.1393C14.7256 12.4302 15.194 11.6227 15.5136 10.7531L10.7473 7.99586Z" fill="#F6F6E7"/>
<path d="M4.68966 14.3448C4.99437 14.3448 5.24139 14.0978 5.24139 13.7931C5.24139 13.4884 4.99437 13.2414 4.68966 13.2414C4.38495 13.2414 4.13794 13.4884 4.13794 13.7931C4.13794 14.0978 4.38495 14.3448 4.68966 14.3448Z" fill="#F6F6E7"/>
<path d="M11.3104 14.3448C11.6151 14.3448 11.8621 14.0978 11.8621 13.7931C11.8621 13.4884 11.6151 13.2414 11.3104 13.2414C11.0057 13.2414 10.7587 13.4884 10.7587 13.7931C10.7587 14.0978 11.0057 14.3448 11.3104 14.3448Z" fill="#F6F6E7"/>
<path d="M14.6207 8.55172C14.9254 8.55172 15.1724 8.3047 15.1724 7.99999C15.1724 7.69529 14.9254 7.44827 14.6207 7.44827C14.316 7.44827 14.069 7.69529 14.069 7.99999C14.069 8.3047 14.316 8.55172 14.6207 8.55172Z" fill="#F6F6E7"/>
<path d="M11.3104 2.75863C11.6151 2.75863 11.8621 2.51162 11.8621 2.20691C11.8621 1.9022 11.6151 1.65518 11.3104 1.65518C11.0057 1.65518 10.7587 1.9022 10.7587 2.20691C10.7587 2.51162 11.0057 2.75863 11.3104 2.75863Z" fill="#F6F6E7"/>
<path d="M4.68966 2.75863C4.99437 2.75863 5.24139 2.51162 5.24139 2.20691C5.24139 1.9022 4.99437 1.65518 4.68966 1.65518C4.38495 1.65518 4.13794 1.9022 4.13794 2.20691C4.13794 2.51162 4.38495 2.75863 4.68966 2.75863Z" fill="#F6F6E7"/>
<path d="M1.37924 8.55172C1.68395 8.55172 1.93096 8.3047 1.93096 7.99999C1.93096 7.69529 1.68395 7.44827 1.37924 7.44827C1.07453 7.44827 0.827515 7.69529 0.827515 7.99999C0.827515 8.3047 1.07453 8.55172 1.37924 8.55172Z" fill="#F6F6E7"/>
<path d="M11.7062 4.29378C9.65934 2.24688 6.34069 2.24688 4.29383 4.29378C2.24696 6.34067 2.24693 9.65933 4.29383 11.7062C6.34072 13.7531 9.65938 13.7531 11.7062 11.7062C13.7531 9.6593 13.7531 6.34067 11.7062 4.29378ZM9.93107 11.3445C8.0839 12.4111 5.7219 11.7783 4.65534 9.93109C3.58879 8.08392 4.22162 5.72192 6.06879 4.65536C7.91596 3.58881 10.278 4.22164 11.3445 6.06881C11.3446 6.06885 11.3446 6.06892 11.3446 6.06895C12.411 7.91609 11.7782 10.278 9.93107 11.3445Z" fill="#FFD400"/>
<path d="M11.1211 4.87891C9.39742 3.15525 6.60273 3.15532 4.87911 4.87908C3.15549 6.60284 3.15552 9.39749 4.87928 11.1211C6.60297 12.8447 9.39749 12.8447 11.1212 11.1211C12.8449 9.39746 12.845 6.6028 11.1213 4.87908C11.1212 4.87901 11.1212 4.87898 11.1211 4.87891ZM9.62763 10.8166C8.07225 11.7151 6.08297 11.1826 5.18442 9.62725C4.28587 8.07187 4.81835 6.0826 6.37373 5.18404C7.92911 4.28549 9.91838 4.81798 10.8169 6.37335C10.8173 6.37398 10.8176 6.37456 10.818 6.37518C11.7152 7.93039 11.1824 9.91853 9.62763 10.8166Z" fill="#F6F6E7"/>
<path d="M8.00001 11.8621C10.133 11.8621 11.8621 10.133 11.8621 8.00001C11.8621 5.86705 10.133 4.13794 8.00001 4.13794C5.86705 4.13794 4.13794 5.86705 4.13794 8.00001C4.13794 10.133 5.86705 11.8621 8.00001 11.8621Z" fill="#FFD400"/>
</svg>
