<svg width="34" height="34" viewBox="0 0 34 34" fill="none" xmlns="http://www.w3.org/2000/svg">
<path d="M17 33C25.8366 33 33 25.8366 33 17C33 8.16344 25.8366 1 17 1C8.16344 1 1 8.16344 1 17C1 25.8366 8.16344 33 17 33Z" fill="#F0F0F0" stroke="white" stroke-width="2"/>
<path d="M5.10089 7.86774C3.92263 9.40073 3.03417 11.1676 2.51685 13.0871H10.3202L5.10089 7.86774Z" fill="#0052B4"/>
<path d="M31.4833 13.0871C30.966 11.1677 30.0775 9.40076 28.8993 7.86777L23.6801 13.0871H31.4833Z" fill="#0052B4"/>
<path d="M2.51685 20.9131C3.03423 22.8326 3.92269 24.5995 5.10089 26.1324L10.3201 20.9131H2.51685Z" fill="#0052B4"/>
<path d="M26.1324 5.10086C24.5994 3.92259 22.8326 3.03414 20.9131 2.51675V10.3201L26.1324 5.10086Z" fill="#0052B4"/>
<path d="M7.8678 28.8992C9.40079 30.0774 11.1677 30.9659 13.0871 31.4833V23.68L7.8678 28.8992Z" fill="#0052B4"/>
<path d="M13.087 2.51675C11.1676 3.03414 9.40073 3.92259 7.8678 5.1008L13.087 10.32V2.51675Z" fill="#0052B4"/>
<path d="M20.9132 31.4833C22.8326 30.9659 24.5995 30.0774 26.1325 28.8992L20.9132 23.68V31.4833Z" fill="#0052B4"/>
<path d="M23.6801 20.9131L28.8993 26.1324C30.0775 24.5995 30.966 22.8326 31.4833 20.9131H23.6801Z" fill="#0052B4"/>
<path d="M31.873 15.0435H18.9566H18.9566V2.12697C18.3161 2.04359 17.6631 2 17 2C16.3368 2 15.6839 2.04359 15.0435 2.12697V15.0434V15.0434H2.12697C2.04359 15.6839 2 16.3369 2 17C2 17.6632 2.04359 18.3161 2.12697 18.9565H15.0434H15.0434V31.873C15.6839 31.9564 16.3368 32 17 32C17.6631 32 18.3161 31.9565 18.9565 31.873V18.9566V18.9566H31.873C31.9564 18.3161 32 17.6632 32 17C32 16.3369 31.9564 15.6839 31.873 15.0435Z" fill="#D80027"/>
<path d="M20.9131 20.9131L27.6066 27.6066C27.9145 27.2989 28.2081 26.9772 28.4883 26.6436L22.7577 20.9131H20.9131V20.9131Z" fill="#D80027"/>
<path d="M13.0869 20.9131H13.0868L6.39331 27.6066C6.70104 27.9144 7.02278 28.2081 7.3563 28.4883L13.0869 22.7576V20.9131Z" fill="#D80027"/>
<path d="M13.087 13.0871V13.0869L6.39344 6.39337C6.08559 6.70111 5.79191 7.02284 5.51172 7.35636L11.2424 13.087H13.087V13.0871Z" fill="#D80027"/>
<path d="M20.9131 13.087L27.6067 6.39341C27.2989 6.08556 26.9772 5.79189 26.6437 5.51175L20.9131 11.2424V13.087Z" fill="#D80027"/>
</svg>
