<svg width="16" height="20" viewBox="0 0 16 20" fill="none" xmlns="http://www.w3.org/2000/svg">
<path d="M15.6471 3.78001L12.0757 0.208552C11.9413 0.0757951 11.7603 0.000962611 11.5714 0H0.857121C0.462618 0 0.142822 0.319796 0.142822 0.714299V19.2857C0.142822 19.6802 0.462618 20 0.857121 20H15.1428C15.5373 20 15.8571 19.6802 15.8571 19.2857V4.28571C15.8561 4.09612 15.7807 3.91452 15.6471 3.78001ZM12.2856 2.43859L13.4185 3.57145H12.2856V2.43859ZM14.4285 18.5714H1.57138V1.42856H10.8571V4.28571C10.8571 4.68021 11.1769 5.00001 11.5714 5.00001H14.4285V18.5714H14.4285Z" fill="white"/>
</svg>
