<svg width="36" height="43" viewBox="0 0 36 43" fill="none" xmlns="http://www.w3.org/2000/svg">
<path d="M23.1548 27.9182C23.9603 26.572 25.1447 25.8824 26.7152 25.864C28.2857 25.8456 29.0783 25.0456 29.1041 23.4714C29.1261 21.9046 29.8084 20.7203 31.1546 19.9184C32.5044 19.113 32.7968 18.0298 32.0281 16.6579C31.2631 15.2896 31.2631 13.9214 32.0281 12.5495C32.7968 11.1813 32.5063 10.0999 31.1546 9.29442C29.8084 8.48709 29.1243 7.3046 29.1041 5.7304C29.0783 4.16355 28.2857 3.36358 26.7152 3.34519C25.1447 3.32312 23.9603 2.63716 23.1548 1.291C22.3494 -0.0588436 21.2662 -0.351248 19.8979 0.417463C18.5297 1.1825 17.1578 1.1825 15.7896 0.417463C14.4195 -0.349409 13.3363 -0.0588436 12.5308 1.291C11.7272 2.639 10.541 3.32496 8.97231 3.34519C7.40547 3.36358 6.60917 4.16355 6.5871 5.7304C6.56136 7.3046 5.87908 8.48525 4.53292 9.29442C3.18307 10.0999 2.88699 11.1794 3.65938 12.5495C4.42809 13.9214 4.42809 15.2896 3.65938 16.6579C2.88699 18.0298 3.18124 19.1148 4.53292 19.9184C5.87908 20.7203 6.56319 21.9046 6.5871 23.4714C6.60917 25.0438 7.40547 25.8456 8.97231 25.864C10.5428 25.8824 11.7272 26.572 12.5327 27.9182C13.3381 29.268 14.4213 29.5604 15.7896 28.788C17.1578 28.0304 18.5297 28.0304 19.8979 28.788C21.2662 29.5586 22.3512 29.268 23.1548 27.9182ZM17.8474 23.1974C13.0991 23.1974 9.25184 19.3502 9.25184 14.6018C9.25184 9.85716 13.0991 6.00993 17.8474 6.00993C22.5921 6.00993 26.4393 9.85716 26.4393 14.6018C26.4393 19.3502 22.5921 23.1974 17.8474 23.1974Z" fill="#FFD400"/>
<path d="M8.83439 27.1237C7.18295 27.1237 6.96227 26.355 6.96227 26.355L0.512817 39.0314L5.68415 38.4503L8.54382 42.7536C8.54382 42.7536 14.5023 30.3218 14.5023 30.4045C11.4145 30.3273 12.643 27.2065 8.83439 27.1237Z" fill="#FFD400"/>
<path d="M28.6407 26.8515C23.9291 27.3444 24.8872 28.514 23.8095 29.4225C22.57 30.7447 21.0216 30.4854 21.0216 30.4854L28.2949 43L30.0843 38.3656L35.171 39.0295L28.6407 26.8515Z" fill="#FFD400"/>
<path d="M19.6423 12.7058L17.8438 9.06451L16.0434 12.7058L12.0177 13.2943L14.9271 16.1319L14.2411 20.1446L17.8438 18.2523L21.4464 20.1446L20.7604 16.1319L23.6698 13.2943L19.6423 12.7058Z" fill="#FFD400"/>
</svg>
